<svg xmlns="http://www.w3.org/2000/svg" width="31.794" height="31" viewBox="0 0 31.794 31">
  <defs>
    <style>
      .cls-1 {
        fill: #fff;
      }
    </style>
  </defs>
  <path id="GH" class="cls-1" d="M10.634,25.524c0,.128-.147.231-.333.231-.212.019-.359-.083-.359-.231,0-.128.147-.231.333-.231C10.468,25.274,10.634,25.376,10.634,25.524Zm-1.994-.288c-.045.128.083.276.276.314a.3.3,0,0,0,.4-.128c.038-.128-.083-.276-.276-.333A.329.329,0,0,0,8.641,25.235Zm2.833-.109c-.186.045-.314.167-.295.314.019.128.186.212.378.167s.314-.167.295-.295S11.66,25.107,11.474,25.126ZM15.692.563A15.371,15.371,0,0,0,0,16.2,16.071,16.071,0,0,0,10.865,31.536c.821.147,1.109-.359,1.109-.776,0-.4-.019-2.59-.019-3.936,0,0-4.487.962-5.429-1.91,0,0-.731-1.865-1.782-2.346,0,0-1.468-1.006.1-.987A3.384,3.384,0,0,1,7.32,23.235a3.389,3.389,0,0,0,4.673,1.34,3.563,3.563,0,0,1,1.026-2.16c-3.583-.4-7.2-.917-7.2-7.083a4.858,4.858,0,0,1,1.513-3.776A6.056,6.056,0,0,1,7.5,7.2c1.34-.417,4.423,1.731,4.423,1.731a15.143,15.143,0,0,1,8.051,0S23.057,6.78,24.4,7.2a6.054,6.054,0,0,1,.167,4.352,4.983,4.983,0,0,1,1.654,3.776c0,6.186-3.776,6.679-7.359,7.083a3.791,3.791,0,0,1,1.09,2.974c0,2.16-.019,4.833-.019,5.359,0,.417.295.923,1.109.776A15.923,15.923,0,0,0,31.794,16.2C31.794,7.312,24.583.563,15.692.563ZM6.231,22.671c-.083.064-.064.212.045.333.1.1.25.147.333.064.083-.064.064-.212-.045-.333C6.461,22.633,6.314,22.588,6.231,22.671Zm-.692-.519c-.045.083.019.186.147.25a.191.191,0,0,0,.276-.045c.045-.083-.019-.186-.147-.25C5.686,22.069,5.583,22.088,5.538,22.152Zm2.077,2.282c-.1.083-.064.276.083.4.147.147.333.167.417.064.083-.083.045-.276-.083-.4C7.891,24.351,7.7,24.331,7.615,24.434Zm-.731-.942c-.1.064-.1.231,0,.378s.276.212.359.147a.292.292,0,0,0,0-.4C7.154,23.472,6.987,23.408,6.885,23.492Z" transform="translate(0 -0.563)"/>
</svg>
