<svg xmlns="http://www.w3.org/2000/svg" width="35.556" height="25" viewBox="0 0 35.556 25">
  <defs>
    <style>
      .cls-1 {
        fill: #fff;
      }
    </style>
  </defs>
  <path id="YT" class="cls-1" d="M35.863,8.412a4.468,4.468,0,0,0-3.143-3.164C29.946,4.5,18.828,4.5,18.828,4.5s-11.118,0-13.891.748A4.468,4.468,0,0,0,1.793,8.412C1.05,11.2,1.05,17.025,1.05,17.025s0,5.823.743,8.614a4.4,4.4,0,0,0,3.143,3.113c2.773.748,13.891.748,13.891.748s11.118,0,13.891-.748a4.4,4.4,0,0,0,3.143-3.113c.743-2.791.743-8.614.743-8.614s0-5.823-.743-8.614Zm-20.671,13.9V11.739l9.293,5.287-9.293,5.287Z" transform="translate(-1.05 -4.5)"/>
</svg>
